<svg width="84" height="22" viewBox="0 0 84 22" fill="none" xmlns="http://www.w3.org/2000/svg">
<path d="M82.1992 16.168L81.8152 14.356H79.8832L79.6072 16H77.8672L79.7032 7.10796L81.8752 6.85596L83.9632 16L82.1992 16.168ZM80.7832 8.76396L80.6872 9.35196L80.0272 12.892H81.5872L80.8912 9.33996L80.7832 8.76396Z" fill="white"/>
<path d="M74.3233 16.168C73.4593 16.168 72.7753 15.788 72.2713 15.028C71.7753 14.268 71.5273 13.14 71.5273 11.644C71.5273 10.66 71.6313 9.80803 71.8393 9.08803C72.0473 8.36803 72.3753 7.81203 72.8233 7.42003C73.2793 7.02803 73.8673 6.83203 74.5873 6.83203C75.1393 6.83203 75.5993 6.96003 75.9673 7.21603C76.3353 7.46403 76.6153 7.80803 76.8073 8.24803C77.0073 8.68003 77.1233 9.18003 77.1553 9.74803L75.5113 10.096C75.4953 9.78403 75.4553 9.50003 75.3913 9.24403C75.3353 8.98003 75.2393 8.76803 75.1033 8.60803C74.9753 8.44803 74.7833 8.36803 74.5273 8.36803C74.1913 8.36803 73.9393 8.52003 73.7713 8.82403C73.6033 9.12803 73.4913 9.53203 73.4353 10.036C73.3793 10.532 73.3513 11.076 73.3513 11.668C73.3513 12.036 73.3633 12.4 73.3873 12.76C73.4113 13.112 73.4633 13.432 73.5433 13.72C73.6233 14 73.7433 14.228 73.9033 14.404C74.0713 14.572 74.2913 14.656 74.5633 14.656C74.8353 14.656 75.0473 14.584 75.1993 14.44C75.3593 14.288 75.4713 14.104 75.5353 13.888C75.6073 13.672 75.6433 13.464 75.6433 13.264V12.784H74.5393L74.7073 11.44H77.2273V16L76.4113 16.108L76.1833 15.04C76.0313 15.336 75.7913 15.6 75.4633 15.832C75.1433 16.056 74.7633 16.168 74.3233 16.168Z" fill="white"/>
<path d="M68.8564 16V7H70.6204V16H68.8564Z" fill="white"/>
<path d="M66.0271 16V9.75996L66.0511 9.26796L64.4191 15.904L63.2191 16.048L61.4791 9.29196L61.4911 9.80796V16H59.9551V7.13196L62.3431 6.85596L63.8911 12.844L65.3191 6.99996H67.6591V16H66.0271Z" fill="white"/>
<path d="M57.5302 16.168L57.1462 14.356H55.2142L54.9382 16H53.1982L55.0342 7.10796L57.2062 6.85596L59.2942 16L57.5302 16.168ZM56.1142 8.76396L56.0182 9.35196L55.3582 12.892H56.9182L56.2222 9.33996L56.1142 8.76396Z" fill="white"/>
<path d="M48.917 16.168L48.533 14.356H46.601L46.325 16H44.585L46.421 7.10796L48.593 6.85596L50.681 16L48.917 16.168ZM47.501 8.76396L47.405 9.35196L46.745 12.892H48.305L47.609 9.33996L47.501 8.76396Z" fill="white"/>
<path d="M38.4971 16V7H40.2611V10.888H42.1571V7H43.9211V16H42.1571V12.352H40.2611V16H38.4971Z" fill="white"/>
<path d="M33.2178 16V7H34.9698V14.524H37.8858L37.7058 16H33.2178Z" fill="white"/>
<path d="M29.3716 16.168C28.6836 16.168 28.1196 15.976 27.6796 15.592C27.2476 15.208 26.9316 14.668 26.7316 13.972C26.5316 13.268 26.4316 12.444 26.4316 11.5C26.4316 10.548 26.5316 9.72403 26.7316 9.02803C26.9316 8.33203 27.2476 7.79203 27.6796 7.40803C28.1196 7.02403 28.6836 6.83203 29.3716 6.83203C30.0676 6.83203 30.6316 7.02403 31.0636 7.40803C31.4956 7.79203 31.8116 8.33203 32.0116 9.02803C32.2116 9.72403 32.3116 10.548 32.3116 11.5C32.3116 12.444 32.2116 13.268 32.0116 13.972C31.8116 14.668 31.4956 15.208 31.0636 15.592C30.6316 15.976 30.0676 16.168 29.3716 16.168ZM29.3716 14.632C29.6196 14.632 29.8156 14.548 29.9596 14.38C30.1116 14.212 30.2236 13.98 30.2956 13.684C30.3676 13.388 30.4116 13.052 30.4276 12.676C30.4516 12.3 30.4636 11.908 30.4636 11.5C30.4636 11.092 30.4516 10.7 30.4276 10.324C30.4116 9.94803 30.3676 9.61203 30.2956 9.31603C30.2236 9.02003 30.1116 8.78803 29.9596 8.62003C29.8156 8.45203 29.6196 8.36803 29.3716 8.36803C29.1236 8.36803 28.9276 8.45203 28.7836 8.62003C28.6396 8.78803 28.5316 9.02003 28.4596 9.31603C28.3876 9.61203 28.3396 9.94803 28.3156 10.324C28.2916 10.7 28.2796 11.092 28.2796 11.5C28.2796 11.908 28.2916 12.3 28.3156 12.676C28.3396 13.052 28.3876 13.388 28.4596 13.684C28.5316 13.98 28.6396 14.212 28.7836 14.38C28.9276 14.548 29.1236 14.632 29.3716 14.632Z" fill="white"/>
<path fill-rule="evenodd" clip-rule="evenodd" d="M14.7243 13.1945C14.3383 13.3425 13.9043 13.1485 13.7563 12.7625C13.6073 12.3755 13.8013 11.9415 14.1873 11.7935C15.7213 11.2055 17.1993 10.4555 18.0743 9.53045C18.0793 9.52445 18.0843 9.51945 18.0893 9.51445C19.0003 8.60545 19.6093 7.62045 19.8613 6.67945C20.0813 5.85845 20.0243 5.07945 19.6063 4.46545C18.7473 3.20045 16.5103 2.65445 14.8763 4.28545C14.6863 4.47445 14.4103 4.54845 14.1523 4.47845C13.8933 4.40945 13.6913 4.20745 13.6223 3.94945C13.0213 1.71945 10.8113 1.07345 9.43529 1.73945C8.76629 2.06345 8.32729 2.70945 8.10729 3.52945C7.85529 4.47045 7.89029 5.62845 8.22429 6.87145C8.22629 6.87845 8.22829 6.88545 8.23029 6.89245C8.35329 7.41245 8.58929 7.96045 8.89429 8.51645C9.09429 8.87945 8.96129 9.33545 8.59829 9.53445C8.23529 9.73445 7.77929 9.60145 7.58029 9.23845C7.20729 8.55845 6.92629 7.88645 6.77329 7.24945C5.91829 4.05945 6.81229 1.34245 8.78229 0.389454C10.5963 -0.488546 13.4323 0.0744538 14.6763 2.52345C16.9773 1.02445 19.7153 1.95545 20.8473 3.62245C22.0763 5.43245 21.4923 8.23345 19.1633 10.5615C18.1583 11.6235 16.4843 12.5195 14.7243 13.1945Z" fill="white"/>
<path fill-rule="evenodd" clip-rule="evenodd" d="M4.90851 3.91033C5.09351 4.28033 4.94351 4.73133 4.57251 4.91633C4.20251 5.10133 3.75151 4.95133 3.56651 4.58033L3.06651 3.58033C2.88151 3.21033 3.03151 2.75933 3.40251 2.57433C3.77251 2.38933 4.22351 2.53933 4.40851 2.91033L4.90851 3.91033Z" fill="#FCFFAB"/>
<path fill-rule="evenodd" clip-rule="evenodd" d="M16.0665 17.5803C15.8815 17.2103 16.0315 16.7593 16.4025 16.5743C16.7725 16.3893 17.2235 16.5393 17.4085 16.9103L17.9085 17.9103C18.0935 18.2803 17.9435 18.7313 17.5725 18.9163C17.2025 19.1013 16.7515 18.9513 16.5665 18.5803L16.0665 17.5803Z" fill="#FCFFAB"/>
<path fill-rule="evenodd" clip-rule="evenodd" d="M2.57251 8.41633C2.20251 8.60133 1.75151 8.45133 1.56651 8.08033C1.38151 7.71033 1.53151 7.25933 1.90251 7.07433L2.90251 6.57433C3.27251 6.38933 3.72351 6.53933 3.90851 6.91033C4.09351 7.28033 3.94351 7.73133 3.57251 7.91633L2.57251 8.41633Z" fill="#FCFFAB"/>
<path fill-rule="evenodd" clip-rule="evenodd" d="M18.4025 13.0743C18.7725 12.8893 19.2235 13.0393 19.4085 13.4103C19.5935 13.7803 19.4435 14.2313 19.0725 14.4163L18.0725 14.9163C17.7025 15.1013 17.2515 14.9513 17.0665 14.5803C16.8815 14.2103 17.0315 13.7593 17.4025 13.5743L18.4025 13.0743Z" fill="#FCFFAB"/>
<path fill-rule="evenodd" clip-rule="evenodd" d="M6.79868 9.91139C8.04268 7.46339 10.8787 6.90039 12.6927 7.77839C14.6627 8.73039 15.5567 11.4494 14.7017 14.6394C14.1797 16.8094 12.0857 19.4264 10.2317 21.2764C10.0427 21.4654 9.76668 21.5394 9.50868 21.4704C6.97768 20.7954 3.85568 19.5754 2.31868 17.9574C-0.0173221 15.6224 -0.602322 12.8214 0.627678 11.0114C1.75968 9.34339 4.49768 8.41339 6.79868 9.91139ZM6.59868 11.6744C4.96468 10.0434 2.72768 10.5894 1.86868 11.8534C1.45068 12.4684 1.39368 13.2474 1.61368 14.0684C1.86568 15.0094 2.47468 15.9944 3.38568 16.9024C3.39068 16.9084 3.39568 16.9134 3.40068 16.9184C4.69568 18.2874 7.27968 19.2864 9.47668 19.9054C11.0697 18.2714 12.8087 16.1134 13.2447 14.2814C13.2467 14.2734 13.2487 14.2664 13.2507 14.2594C13.5847 13.0174 13.6197 11.8594 13.3677 10.9184C13.1477 10.0974 12.7087 9.45139 12.0397 9.12839C10.6637 8.46239 8.45368 9.10839 7.85268 11.3384C7.78368 11.5964 7.58168 11.7984 7.32268 11.8674C7.06468 11.9364 6.78868 11.8634 6.59868 11.6744Z" fill="#FCFFAB"/>
</svg>
