<svg width="562" height="84" viewBox="0 0 562 84" fill="none" xmlns="http://www.w3.org/2000/svg">
<path d="M179.012 65.0079C173.244 65.0079 168.176 63.7199 163.808 61.1439C159.44 58.5679 155.996 55.0119 153.476 50.4759C151.012 45.8839 149.78 40.5919 149.78 34.5999C149.78 28.6079 151.012 23.3439 153.476 18.8079C155.996 14.2159 159.44 10.6319 163.808 8.05589C168.176 5.47989 173.244 4.19189 179.012 4.19189C184.78 4.19189 189.876 5.47989 194.3 8.05589C198.724 10.6319 202.14 14.2159 204.548 18.8079C207.012 23.3439 208.244 28.6079 208.244 34.5999C208.244 40.5919 207.012 45.8839 204.548 50.4759C202.14 55.0119 198.724 58.5679 194.3 61.1439C189.876 63.7199 184.78 65.0079 179.012 65.0079ZM179.012 53.6679C182.428 53.6679 185.34 52.8839 187.748 51.3159C190.212 49.7479 192.116 47.5639 193.46 44.7639C194.804 41.9079 195.476 38.5199 195.476 34.5999C195.476 30.6799 194.804 27.3199 193.46 24.5199C192.116 21.6639 190.212 19.4799 187.748 17.9679C185.34 16.3999 182.428 15.6159 179.012 15.6159C175.708 15.6159 172.824 16.3999 170.36 17.9679C167.896 19.4799 165.992 21.6639 164.648 24.5199C163.304 27.3199 162.632 30.6799 162.632 34.5999C162.632 38.5199 163.304 41.9079 164.648 44.7639C165.992 47.5639 167.896 49.7479 170.36 51.3159C172.824 52.8839 175.708 53.6679 179.012 53.6679Z" fill="#ED4C67"/>
<path d="M213.46 64V3.52002H226.06V64H213.46Z" fill="#ED4C67"/>
<path d="M233.46 64V3.52002H246.06V27.712C247.404 25.584 249.224 23.876 251.52 22.588C253.816 21.3 256.504 20.656 259.584 20.656C263.168 20.656 266.164 21.412 268.572 22.924C270.98 24.436 272.8 26.648 274.032 29.56C275.264 32.416 275.88 35.888 275.88 39.976V64H263.364V41.152C263.364 38.016 262.692 35.58 261.348 33.844C260.06 32.108 257.988 31.24 255.132 31.24C253.452 31.24 251.912 31.66 250.512 32.5C249.112 33.34 248.02 34.544 247.236 36.112C246.452 37.624 246.06 39.444 246.06 41.572V64H233.46Z" fill="#ED4C67"/>
<path d="M296.908 65.008C293.38 65.008 290.44 64.448 288.088 63.328C285.792 62.208 284.084 60.696 282.964 58.792C281.9 56.832 281.368 54.676 281.368 52.324C281.368 49.804 281.984 47.592 283.216 45.688C284.504 43.728 286.492 42.188 289.18 41.068C291.868 39.892 295.256 39.304 299.344 39.304H309.592C309.592 37.4 309.34 35.832 308.836 34.6C308.388 33.368 307.632 32.444 306.568 31.828C305.504 31.212 304.048 30.904 302.2 30.904C300.24 30.904 298.588 31.296 297.244 32.08C295.9 32.864 295.06 34.096 294.724 35.776H282.628C282.908 32.752 283.888 30.12 285.568 27.88C287.304 25.64 289.6 23.876 292.456 22.588C295.312 21.3 298.588 20.656 302.284 20.656C306.316 20.656 309.816 21.328 312.784 22.672C315.752 23.96 318.048 25.864 319.672 28.384C321.352 30.904 322.192 34.04 322.192 37.792V64H311.692L310.18 57.868C309.564 58.932 308.836 59.912 307.996 60.808C307.156 61.648 306.176 62.404 305.056 63.076C303.936 63.692 302.704 64.168 301.36 64.504C300.016 64.84 298.532 65.008 296.908 65.008ZM300.016 55.432C301.36 55.432 302.536 55.208 303.544 54.76C304.552 54.312 305.42 53.696 306.148 52.912C306.876 52.128 307.464 51.232 307.912 50.224C308.416 49.16 308.78 48.012 309.004 46.78V46.696H300.856C299.456 46.696 298.28 46.892 297.328 47.284C296.432 47.62 295.76 48.124 295.312 48.796C294.864 49.468 294.64 50.252 294.64 51.148C294.64 52.1 294.864 52.912 295.312 53.584C295.816 54.2 296.46 54.676 297.244 55.012C298.084 55.292 299.008 55.432 300.016 55.432Z" fill="#ED4C67"/>
<path d="M338.68 64L360.1 5.19995H374.548L395.968 64H382.612L367.24 19.396L351.868 64H338.68ZM348.004 51.148L351.364 41.404H382.192L385.468 51.148H348.004Z" fill="#ED4C67"/>
<path d="M389.46 64V21.664H400.464L401.556 27.124C402.9 25.164 404.664 23.596 406.848 22.42C409.088 21.244 411.664 20.656 414.576 20.656C416.648 20.656 418.524 20.936 420.204 21.496C421.884 22 423.368 22.784 424.656 23.848C425.944 24.856 427.008 26.144 427.848 27.712C429.472 25.528 431.544 23.82 434.064 22.588C436.584 21.3 439.328 20.656 442.296 20.656C446.104 20.656 449.24 21.412 451.704 22.924C454.224 24.436 456.1 26.62 457.332 29.476C458.564 32.332 459.18 35.804 459.18 39.892V64H446.664V40.984C446.664 37.904 446.048 35.524 444.816 33.844C443.64 32.108 441.736 31.24 439.104 31.24C437.424 31.24 435.94 31.66 434.652 32.5C433.364 33.34 432.356 34.516 431.628 36.028C430.956 37.54 430.62 39.36 430.62 41.488V64H418.104V40.984C418.104 37.904 417.488 35.524 416.256 33.844C415.024 32.108 413.036 31.24 410.292 31.24C408.724 31.24 407.296 31.66 406.008 32.5C404.776 33.34 403.796 34.516 403.068 36.028C402.396 37.54 402.06 39.36 402.06 41.488V64H389.46Z" fill="#ED4C67"/>
<path d="M463.628 64.0001V21.6641H476.228V64.0001H463.628ZM469.928 16.7921C467.688 16.7921 465.868 16.1481 464.468 14.8601C463.068 13.5721 462.368 11.9481 462.368 9.9881C462.368 7.9721 463.068 6.3201 464.468 5.0321C465.868 3.7441 467.688 3.1001 469.928 3.1001C472.224 3.1001 474.072 3.7441 475.472 5.0321C476.928 6.3201 477.656 7.9721 477.656 9.9881C477.656 11.9481 476.928 13.5721 475.472 14.8601C474.072 16.1481 472.224 16.7921 469.928 16.7921Z" fill="#ED4C67"/>
<path d="M498.108 83.488C493.964 83.488 490.38 82.984 487.356 81.976C484.332 81.024 481.98 79.568 480.3 77.608C478.676 75.648 477.864 73.184 477.864 70.216C477.864 68.088 478.424 66.1 479.544 64.252C480.72 62.404 482.372 60.78 484.5 59.38C486.628 57.924 489.176 56.72 492.144 55.768L496.344 62.152C493.88 62.88 492.032 63.832 490.8 65.008C489.624 66.184 489.036 67.5 489.036 68.956C489.036 70.076 489.428 71.028 490.212 71.812C490.996 72.596 492.06 73.184 493.404 73.576C494.804 73.968 496.344 74.164 498.024 74.164C499.648 74.164 501.048 73.968 502.224 73.576C503.456 73.184 504.408 72.596 505.08 71.812C505.808 71.084 506.172 70.188 506.172 69.124C506.172 67.724 505.696 66.604 504.744 65.764C503.792 64.924 501.832 64.392 498.864 64.168C496.12 63.944 493.628 63.636 491.388 63.244C489.204 62.796 487.244 62.264 485.508 61.648C483.828 61.032 482.372 60.36 481.14 59.632C479.908 58.904 478.956 58.176 478.284 57.448V55.516L487.524 45.352L496.176 48.04L485.004 59.38L488.868 52.996C489.428 53.332 490.016 53.668 490.632 54.004C491.248 54.284 492.004 54.536 492.9 54.76C493.796 54.984 494.916 55.208 496.26 55.432C497.604 55.6 499.34 55.796 501.468 56.02C505.108 56.356 508.104 57.056 510.456 58.12C512.864 59.128 514.628 60.528 515.748 62.32C516.924 64.112 517.512 66.296 517.512 68.872C517.512 71.392 516.812 73.772 515.412 76.012C514.012 78.252 511.884 80.044 509.028 81.388C506.172 82.788 502.532 83.488 498.108 83.488ZM498.192 51.736C494.664 51.736 491.612 51.036 489.036 49.636C486.46 48.236 484.472 46.388 483.072 44.092C481.672 41.74 480.972 39.108 480.972 36.196C480.972 33.34 481.672 30.764 483.072 28.468C484.472 26.116 486.46 24.24 489.036 22.84C491.612 21.384 494.664 20.656 498.192 20.656C501.776 20.656 504.856 21.384 507.432 22.84C510.008 24.24 511.968 26.116 513.312 28.468C514.656 30.764 515.328 33.34 515.328 36.196C515.328 39.108 514.656 41.74 513.312 44.092C511.968 46.388 510.008 48.236 507.432 49.636C504.856 51.036 501.776 51.736 498.192 51.736ZM498.192 42.244C500.096 42.244 501.664 41.74 502.896 40.732C504.128 39.724 504.744 38.24 504.744 36.28C504.744 34.32 504.128 32.836 502.896 31.828C501.664 30.82 500.096 30.316 498.192 30.316C496.288 30.316 494.692 30.82 493.404 31.828C492.172 32.836 491.556 34.32 491.556 36.28C491.556 38.24 492.172 39.724 493.404 40.732C494.692 41.74 496.288 42.244 498.192 42.244ZM505.248 30.316L503.4 21.664H520.956V28.804L505.248 30.316Z" fill="#ED4C67"/>
<path d="M535.908 65.008C532.38 65.008 529.44 64.448 527.088 63.328C524.792 62.208 523.084 60.696 521.964 58.792C520.9 56.832 520.368 54.676 520.368 52.324C520.368 49.804 520.984 47.592 522.216 45.688C523.504 43.728 525.492 42.188 528.18 41.068C530.868 39.892 534.256 39.304 538.344 39.304H548.592C548.592 37.4 548.34 35.832 547.836 34.6C547.388 33.368 546.632 32.444 545.568 31.828C544.504 31.212 543.048 30.904 541.2 30.904C539.24 30.904 537.588 31.296 536.244 32.08C534.9 32.864 534.06 34.096 533.724 35.776H521.628C521.908 32.752 522.888 30.12 524.568 27.88C526.304 25.64 528.6 23.876 531.456 22.588C534.312 21.3 537.588 20.656 541.284 20.656C545.316 20.656 548.816 21.328 551.784 22.672C554.752 23.96 557.048 25.864 558.672 28.384C560.352 30.904 561.192 34.04 561.192 37.792V64H550.692L549.18 57.868C548.564 58.932 547.836 59.912 546.996 60.808C546.156 61.648 545.176 62.404 544.056 63.076C542.936 63.692 541.704 64.168 540.36 64.504C539.016 64.84 537.532 65.008 535.908 65.008ZM539.016 55.432C540.36 55.432 541.536 55.208 542.544 54.76C543.552 54.312 544.42 53.696 545.148 52.912C545.876 52.128 546.464 51.232 546.912 50.224C547.416 49.16 547.78 48.012 548.004 46.78V46.696H539.856C538.456 46.696 537.28 46.892 536.328 47.284C535.432 47.62 534.76 48.124 534.312 48.796C533.864 49.468 533.64 50.252 533.64 51.148C533.64 52.1 533.864 52.912 534.312 53.584C534.816 54.2 535.46 54.676 536.244 55.012C537.084 55.292 538.008 55.432 539.016 55.432Z" fill="#ED4C67"/>
<path fill-rule="evenodd" clip-rule="evenodd" d="M0.00566234 48.1473C0.00566256 45.6982 1.97929 43.7246 4.42844 43.7246C9.40954 43.7246 13.4783 39.6556 13.4728 34.6745C13.4728 29.6934 9.40387 25.6521 4.42277 25.6521C1.97361 25.6521 -2.1411e-07 23.6784 0 21.2293L8.14383e-07 11.9139C1.38953e-06 5.33492 5.34058 -5.74655e-07 11.9139 0L113.373 8.86983e-06C119.952 9.44498e-06 125.287 5.34059 125.287 11.9139V21.2293C125.287 23.6785 123.313 25.6521 120.864 25.6521C115.883 25.6521 111.814 29.6934 111.814 34.6745C111.814 39.6556 115.883 43.7246 120.864 43.7246C123.313 43.7246 125.287 45.6982 125.287 48.1473V57.4627C125.287 64.0084 119.946 69.3766 113.373 69.3766H85.5746C87.5681 67.933 89.3488 66.4123 90.8467 64.8211C103.092 52.5165 106.162 37.7123 99.7007 28.1458C93.749 19.3351 79.3534 14.4145 67.2554 22.3372C60.7148 9.39342 45.804 6.41778 36.2665 11.0583C25.9088 16.0952 21.2085 30.4555 25.7038 47.3157C26.5082 50.6825 27.9856 54.2343 29.9467 57.8283C30.993 59.7469 33.3905 60.4498 35.2991 59.3927C37.2076 58.341 37.9069 55.9308 36.8554 54.0123C35.2518 51.0736 34.011 48.1772 33.3643 45.4289L33.3327 45.3179C31.5766 38.7482 31.3926 32.6278 32.7176 27.6543C33.8743 23.3203 36.1824 19.906 39.6998 18.1935C46.9344 14.6735 58.5539 18.0878 61.7138 29.8741C62.0766 31.2377 63.1386 32.3054 64.5004 32.6701C65.8569 33.04 67.308 32.6489 68.307 31.65C76.898 23.0296 88.6595 25.9154 93.1759 32.6013C95.3736 35.8465 95.6733 39.9638 94.5166 44.3031C93.1916 49.2766 89.9897 54.4827 85.1999 59.287C85.1736 59.3135 85.1474 59.3399 85.1211 59.3716C81.4354 63.2886 75.7147 66.6118 69.4381 69.3766L11.9195 69.3766C5.34058 69.3766 0.00566096 64.0084 0.00566153 57.4627L0.00566234 48.1473Z" fill="#ED4C67"/>
</svg>
