<svg width="610" height="339" viewBox="0 0 610 339" fill="none" xmlns="http://www.w3.org/2000/svg">
<mask id="path-1-inside-1_12_115" fill="white">
<path fill-rule="evenodd" clip-rule="evenodd" d="M0.0490498 234.664C0.0490511 222.74 9.65795 213.132 21.582 213.132C45.8333 213.132 65.643 193.321 65.616 169.07C65.616 144.819 45.8057 125.143 21.5544 125.143C9.63034 125.143 0.0214831 115.534 0.0214844 103.61L0.0214892 58.2562C0.0214927 26.2255 26.023 0.251583 58.0261 0.251587L551.996 0.25164C584.026 0.251643 610 26.2531 610 58.2563V103.61C610 115.534 600.391 125.143 588.467 125.143C564.216 125.143 544.406 144.819 544.406 169.07C544.406 193.321 564.216 213.132 588.467 213.132C600.391 213.132 610 222.74 610 234.665V280.018C610 311.887 583.999 338.023 551.996 338.023L416.655 338.023C426.359 330.995 435.027 323.592 442.32 315.845C501.937 255.939 516.886 183.862 485.427 137.286C456.45 94.3899 386.363 70.4329 327.462 109.006C295.618 45.9871 223.022 31.4997 176.587 54.0928C126.159 78.6158 103.275 148.531 125.161 230.618C129.077 247.01 136.27 264.302 145.818 281.8C150.912 291.141 162.585 294.563 171.877 289.417C181.169 284.296 184.574 272.562 179.454 263.221C171.647 248.914 165.606 234.812 162.457 221.431L162.304 220.891C153.754 188.905 152.858 159.107 159.309 134.893C164.94 113.792 176.178 97.169 193.303 88.8317C228.526 71.6938 285.097 88.317 300.481 145.701C302.248 152.34 307.419 157.538 314.048 159.313C320.653 161.114 327.718 159.21 332.581 154.347C374.408 112.377 431.671 126.427 453.66 158.979C464.359 174.778 465.819 194.824 460.187 215.95C453.736 240.165 438.147 265.511 414.827 288.902C414.699 289.031 414.571 289.159 414.443 289.314C396.5 308.383 368.65 324.562 338.093 338.023L58.0536 338.023C26.0229 338.023 0.0490415 311.887 0.049045 280.018L0.0490498 234.664Z"/>
</mask>
<path d="M0.0490498 234.664L1.04905 234.664L0.0490498 234.664ZM65.616 169.07L64.616 169.07L64.616 169.071L65.616 169.07ZM0.0214844 103.61L1.02148 103.61L0.0214844 103.61ZM0.0214892 58.2562L1.02149 58.2562L0.0214892 58.2562ZM58.0261 0.251587L58.0261 -0.748413L58.0261 0.251587ZM551.996 0.25164L551.996 1.25164L551.996 0.25164ZM610 58.2563L609 58.2563V58.2563H610ZM551.996 338.023L551.996 339.023H551.996V338.023ZM416.655 338.023L416.068 337.213L413.569 339.023L416.655 339.023L416.655 338.023ZM442.32 315.845L441.611 315.14L441.601 315.15L441.591 315.16L442.32 315.845ZM485.427 137.286L486.255 136.726L486.255 136.726L485.427 137.286ZM327.462 109.006L326.569 109.457L327.074 110.455L328.01 109.843L327.462 109.006ZM176.587 54.0928L177.025 54.9921L177.025 54.9921L176.587 54.0928ZM125.161 230.618L126.134 230.386L126.131 230.373L126.127 230.36L125.161 230.618ZM145.818 281.8L146.696 281.321L146.696 281.321L145.818 281.8ZM171.877 289.417L171.395 288.541L171.393 288.542L171.877 289.417ZM179.454 263.221L178.576 263.7L178.577 263.702L179.454 263.221ZM162.457 221.431L163.431 221.202L163.425 221.18L163.419 221.158L162.457 221.431ZM162.304 220.891L161.337 221.149L161.339 221.157L161.342 221.164L162.304 220.891ZM159.309 134.893L158.342 134.635L158.342 134.635L159.309 134.893ZM193.303 88.8317L192.865 87.9324L192.865 87.9326L193.303 88.8317ZM300.481 145.701L301.448 145.443L301.447 145.442L300.481 145.701ZM314.048 159.313L314.311 158.348L314.307 158.347L314.048 159.313ZM332.581 154.347L333.288 155.054L333.29 155.053L332.581 154.347ZM453.66 158.979L452.831 159.538L452.832 159.539L453.66 158.979ZM460.187 215.95L459.221 215.693L459.221 215.693L460.187 215.95ZM414.827 288.902L414.119 288.196L414.118 288.197L414.827 288.902ZM414.443 289.314L415.172 289.999L415.193 289.976L415.213 289.952L414.443 289.314ZM338.093 338.023L338.093 339.023L338.304 339.023L338.496 338.938L338.093 338.023ZM58.0536 338.023L58.0536 337.023H58.0536V338.023ZM0.049045 280.018L-0.950955 280.018L0.049045 280.018ZM21.582 212.132C9.10567 212.132 -0.950949 222.188 -0.95095 234.664L1.04905 234.664C1.04905 223.293 10.2102 214.132 21.582 214.132V212.132ZM64.616 169.071C64.6423 192.769 45.2812 212.132 21.582 212.132V214.132C46.3854 214.132 66.6436 193.873 66.616 169.069L64.616 169.071ZM21.5544 126.143C45.2574 126.143 64.616 145.375 64.616 169.07L66.616 169.07C66.616 144.262 46.354 124.143 21.5544 124.143V126.143ZM-0.978516 103.61C-0.978517 116.086 9.07806 126.143 21.5544 126.143V124.143C10.1826 124.143 1.02148 114.982 1.02148 103.61L-0.978516 103.61ZM-0.978511 58.2562L-0.978516 103.61L1.02148 103.61L1.02149 58.2562L-0.978511 58.2562ZM58.0261 -0.748413C25.471 -0.748417 -0.978507 25.6729 -0.978511 58.2562L1.02149 58.2562C1.02149 26.7781 26.5749 1.25158 58.0261 1.25159L58.0261 -0.748413ZM551.996 -0.74836L58.0261 -0.748413L58.0261 1.25159L551.996 1.25164L551.996 -0.74836ZM611 58.2563C611 25.7011 584.579 -0.748357 551.996 -0.74836L551.996 1.25164C583.474 1.25164 609 26.8051 609 58.2563L611 58.2563ZM611 103.61V58.2563H609V103.61H611ZM588.467 126.143C600.944 126.143 611 116.086 611 103.61H609C609 114.982 599.839 124.143 588.467 124.143V126.143ZM545.406 169.07C545.406 145.375 564.764 126.143 588.467 126.143V124.143C563.668 124.143 543.406 144.262 543.406 169.07H545.406ZM588.467 212.132C564.768 212.132 545.406 192.769 545.406 169.07H543.406C543.406 193.874 563.664 214.132 588.467 214.132V212.132ZM611 234.665C611 222.188 600.944 212.132 588.467 212.132V214.132C599.839 214.132 609 223.293 609 234.665H611ZM611 280.018V234.665H609V280.018H611ZM551.996 339.023C584.553 339.023 611 312.438 611 280.018H609C609 311.336 583.445 337.023 551.996 337.023V339.023ZM416.655 339.023L551.996 339.023L551.996 337.023L416.655 337.023L416.655 339.023ZM441.591 315.16C434.351 322.851 425.733 330.214 416.068 337.213L417.241 338.833C426.985 331.776 435.704 324.332 443.048 316.531L441.591 315.16ZM484.598 137.846C515.672 183.851 501.066 255.397 441.611 315.14L443.028 316.551C502.808 256.481 518.101 183.873 486.255 136.726L484.598 137.846ZM328.01 109.843C386.412 71.596 455.899 95.3607 484.598 137.846L486.255 136.726C457.001 93.4191 386.313 69.2698 326.914 108.169L328.01 109.843ZM177.025 54.9921C223.009 32.6181 294.992 46.9652 326.569 109.457L328.354 108.555C296.244 45.0089 223.035 30.3812 176.15 53.1936L177.025 54.9921ZM126.127 230.36C104.299 148.491 127.22 79.2118 177.025 54.9921L176.15 53.1935C125.098 78.0198 102.25 148.571 124.195 230.876L126.127 230.36ZM146.696 281.321C137.177 263.876 130.024 246.668 126.134 230.386L124.188 230.85C128.131 247.351 135.364 264.728 144.941 282.279L146.696 281.321ZM171.393 288.542C162.589 293.418 151.526 290.178 146.696 281.321L144.941 282.279C150.299 292.104 162.581 295.708 172.362 290.292L171.393 288.542ZM178.577 263.702C183.433 272.561 180.202 283.687 171.395 288.541L172.36 290.293C182.137 284.905 185.715 272.563 180.331 262.74L178.577 263.702ZM161.484 221.66C164.66 235.159 170.744 249.347 178.576 263.7L180.332 262.742C172.549 248.48 166.551 234.466 163.431 221.202L161.484 221.66ZM161.342 221.164L161.495 221.705L163.419 221.158L163.265 220.618L161.342 221.164ZM158.342 134.635C151.836 159.06 152.755 189.042 161.337 221.149L163.27 220.633C154.752 188.769 153.88 159.154 160.275 135.15L158.342 134.635ZM192.865 87.9326C175.4 96.4352 164.023 113.351 158.342 134.635L160.275 135.151C165.857 114.233 176.955 97.9029 193.74 89.7308L192.865 87.9326ZM301.447 145.442C285.897 87.4387 228.642 70.5253 192.865 87.9324L193.74 89.7309C228.41 72.8623 284.297 89.1953 299.516 145.96L301.447 145.442ZM314.307 158.347C308.025 156.665 303.123 151.738 301.448 145.443L299.515 145.958C301.373 152.941 306.812 158.41 313.79 160.279L314.307 158.347ZM331.874 153.64C327.261 158.252 320.566 160.054 314.311 158.348L313.785 160.278C320.74 162.175 328.174 160.168 333.288 155.054L331.874 153.64ZM454.488 158.419C432.159 125.362 374.158 111.211 331.873 153.641L333.29 155.053C374.658 113.543 431.183 127.491 452.831 159.538L454.488 158.419ZM461.153 216.208C466.834 194.899 465.399 174.53 454.488 158.418L452.832 159.539C463.32 175.027 464.804 194.749 459.221 215.693L461.153 216.208ZM415.536 289.608C438.945 266.127 454.646 240.633 461.153 216.208L459.221 215.693C452.826 239.696 437.349 264.895 414.119 288.196L415.536 289.608ZM415.213 289.952C415.308 289.837 415.406 289.739 415.536 289.607L414.118 288.197C413.993 288.323 413.835 288.481 413.674 288.676L415.213 289.952ZM338.496 338.938C369.093 325.46 397.09 309.216 415.172 289.999L413.715 288.629C395.91 307.551 368.207 323.664 337.69 337.108L338.496 338.938ZM58.0536 339.023L338.093 339.023L338.093 337.023L58.0536 337.023L58.0536 339.023ZM-0.950955 280.018C-0.950959 312.437 25.4688 339.023 58.0536 339.023V337.023C26.577 337.023 1.04904 311.336 1.04904 280.018L-0.950955 280.018ZM-0.95095 234.664L-0.950955 280.018L1.04904 280.018L1.04905 234.664L-0.95095 234.664Z" fill="url(#paint0_linear_12_115)" mask="url(#path-1-inside-1_12_115)"/>
<defs>
<linearGradient id="paint0_linear_12_115" x1="17" y1="163.5" x2="672" y2="169" gradientUnits="userSpaceOnUse">
<stop/>
<stop offset="1" stop-color="#666666" stop-opacity="0"/>
</linearGradient>
</defs>
</svg>
