<svg width="150" height="150" viewBox="0 0 150 150" fill="none" xmlns="http://www.w3.org/2000/svg">
<g clip-path="url(#clip0_6_25)">
<path d="M150 0H0V150H150V0Z" fill="#9222DC"/>
<path d="M36.474 69.433C36.474 76.105 31.674 81.529 22.375 81.529H15V51.705L22.362 49V80.749C26.667 79.357 28.54 75.533 28.54 71.019C28.54 67.339 27.291 63.164 23.533 62.747L23.468 62.604C24.924 61.148 26.668 60.237 28.813 60.237C33.626 60.25 36.474 64.49 36.474 69.433ZM58.351 77.978C56.686 80.618 54.046 82.075 50.365 82.075C44.187 82.075 39.452 77.77 39.452 71.306C39.452 65.258 43.484 60.263 49.597 60.263C53.98 60.263 56.829 62.761 56.829 66.376C56.829 69.914 54.123 72.841 48.765 74.154C51.262 76.587 54.605 78.044 58.285 77.77L58.351 77.978ZM44.668 64.152C44.668 67.768 46.06 71.176 48.348 73.673C49.806 72.073 50.573 70.343 50.573 68.249C50.573 64.009 48.076 61.785 46.333 61.785C45.293 61.785 44.668 62.617 44.668 64.152ZM59.951 97.774V91.726H60.848V100.206L54.8 93.82V99.79H53.825V91.388L59.951 97.774ZM68.912 49V81.517H61.551V51.783L68.912 49ZM61.902 99.791L65.518 91.389L69.264 99.791H68.158L67.182 97.359H63.918L62.878 99.791H61.902ZM64.334 96.461H66.766L65.518 93.613L64.334 96.461ZM91.57 77.98C89.905 80.62 87.265 82.077 83.584 82.077C77.406 82.077 72.671 77.771 72.671 71.307C72.671 65.26 76.703 60.265 82.816 60.265C87.199 60.265 90.048 62.762 90.048 66.378C90.048 69.916 87.342 72.842 81.984 74.156C84.481 76.588 87.824 78.045 91.504 77.771L91.57 77.98ZM80.801 97.71L82.882 91.74H83.988L80.788 100.22L78.421 93.965L76.054 100.221L72.88 91.728H73.986L76.145 97.698L78.435 91.376L80.801 97.71ZM77.875 64.154C77.875 67.769 79.266 71.177 81.555 73.674C83.012 72.074 83.78 70.344 83.78 68.251C83.78 64.011 81.282 61.786 79.54 61.786C78.512 61.786 77.875 62.619 77.875 64.153V64.154ZM89.62 91.727V92.702H86.017V94.992H89.347V95.889H86.017V98.88H89.633V99.778H85.04V91.714H89.619L89.62 91.727ZM96.227 97.423C96.227 99.023 95.043 99.791 93.522 99.791H91.362V91.727H93.379C94.835 91.727 95.746 92.351 95.746 93.807C95.746 94.64 95.264 95.134 94.419 95.407C95.525 95.694 96.227 96.318 96.227 97.423ZM92.338 92.637V95.004H93.378C94.211 95.004 94.835 94.588 94.835 93.821C94.835 92.988 94.145 92.637 93.378 92.637H92.338ZM93.508 98.958C94.484 98.958 95.251 98.399 95.251 97.358C95.251 96.318 94.484 95.902 93.509 95.902H92.325V98.958H93.508ZM135 69.355V81.516H127.638V70.747C124.438 71.645 122.773 73.453 122.773 75.963C122.773 78.253 124.23 79.643 126.87 78.668L126.936 78.811C125.401 81.035 123.255 81.933 121.031 81.933C117.909 81.933 115.815 79.709 115.815 76.925C115.815 72.75 120.745 69.564 127.625 70.188V69.98C127.625 64.972 122.695 63.659 118.105 65.389L117.896 65.181C120.12 61.851 123.385 60.251 127.131 60.251C132.424 60.251 135 63.659 135 69.356V69.355ZM102.353 80.685C107.152 79.852 110.898 77.068 112.979 73.661H113.187V77.55C113.187 80.541 111.86 81.517 109.012 81.517H93.52L93.377 81.374L105.46 60.81H113.654L102.353 80.685ZM104.187 60.953C100.922 62.345 97.722 64.907 94.666 68.107L94.458 68.042V64.777C94.458 62.072 95.355 60.81 98.49 60.81H104.187V60.953Z" fill="#F5F5F5"/>
</g>
<defs>
<clipPath id="clip0_6_25">
<rect width="150" height="150" fill="white"/>
</clipPath>
</defs>
</svg>
