<svg width="150" height="150" viewBox="0 0 150 150" fill="none" xmlns="http://www.w3.org/2000/svg">
<g clip-path="url(#clip0_6_83)">
<path d="M150 0H0V150H150V0Z" fill="white"/>
<path fill-rule="evenodd" clip-rule="evenodd" d="M101.393 58.2034H108.984V58.73H107.448L107.492 91.2879H109.043V91.8729H101.437V91.3318H102.973L102.929 58.7885H101.393V58.2034ZM76.7627 58.2473H84.8949V58.7738H82.8326L82.8764 91.3318H86.9133C92.1641 91.3318 93.8461 87.9677 94.3726 84.5013H95.0016V91.8583L76.8212 91.9022V91.3318H78.3131L78.2546 58.7738H76.7627V58.2473ZM41.6159 58.2912H60.3667V65.6481H59.7524C59.2259 62.1964 58.831 58.8323 53.5948 58.8323H47.7297V74.263C49.792 74.263 51.5178 74.497 53.0682 72.9613C53.8873 72.0983 54.1652 71.133 54.3115 70.5626H54.838V78.6362H54.2676C54.1652 78.0658 53.8288 77.0566 53.0097 76.2375C51.474 74.7018 50.377 74.8919 47.7297 74.9358V91.3756H53.6387C58.8748 91.4342 59.2697 88.0701 59.7524 84.6037H60.3667V91.9607H41.6598V91.3756H43.1517V58.8323H41.6159V58.2912ZM17 91.4195H18.5358V58.8616H17V58.2765H25.1761V58.8616H23.0991V91.4195H27.1506C32.3868 91.4195 34.1127 87.997 34.6392 84.5452H35.2243V91.9461H17V91.4195ZM132.167 67.2863H131.245C130.236 62.0355 127.925 58.5691 124.81 58.6276C123.742 58.6276 122.119 59.1541 121.241 60.4558C120.422 61.7429 120.568 63.3811 120.627 63.8637C121.197 70.2115 135.048 75.9889 133.937 85.0718C133.703 86.9878 132.649 89.4011 130.675 90.7467C128.744 92.0923 126.448 92.0485 125.38 92.0485C121.577 91.9899 119.223 89.6351 117.935 90.7028C117.541 90.9807 117.453 91.5658 117.394 91.8437H116.385V81.6492H117.116C117.16 81.7955 117.16 82.0441 117.204 82.2781C117.935 85.9347 121.197 91.2294 125.292 91.2294C127.589 91.2294 129.476 90.4542 130.338 88.3334C131.64 85.1156 129.227 81.6053 126.492 78.724C124.854 77.042 124.898 77.0858 122.923 74.8334C118.842 70.1676 117.116 67.7982 117.116 65.2532C117.058 63.1471 117.935 61.2164 119.413 59.8269C121.636 57.8524 124.517 57.9548 125.044 57.9548C128.028 58.0864 128.993 59.198 130.295 59.198C131.099 59.198 131.245 58.3789 131.245 58.1449H132.167V67.2863Z" fill="black"/>
</g>
<defs>
<clipPath id="clip0_6_83">
<rect width="150" height="150" fill="white"/>
</clipPath>
</defs>
</svg>
