<svg width="150" height="150" viewBox="0 0 150 150" fill="none" xmlns="http://www.w3.org/2000/svg">
<g clip-path="url(#clip0_6_77)">
<path d="M150 0H0V150H150V0Z" fill="#EC008C"/>
<g clip-path="url(#clip1_6_77)">
<path d="M45.9251 65.2126C44.3465 63.7965 42.1268 63.0166 39.6735 63.0166C37.2715 63.0166 34.9566 63.9142 33.3222 65.4787L33.1866 65.608L33.0512 65.4787C31.4168 63.9142 29.1021 63.0166 26.7003 63.0166C24.2474 63.0166 22.0273 63.7965 20.4487 65.2126C18.9369 66.5687 18 67.9771 18 70.8026L18.0006 87.2246H22.4262L22.427 70.8026C22.427 68.643 24.3036 66.9512 26.7005 66.9512C29.0966 66.9512 30.974 68.6428 30.974 70.8026L30.9744 87.2246H35.4004L35.4012 70.8026C35.4012 68.643 37.2778 66.9512 39.6741 66.9512C42.0706 66.9512 43.9478 68.6428 43.9478 70.8026L43.9486 87.2246H48.3736L48.375 70.8026C48.3738 67.9771 47.4369 66.5687 45.9251 65.2126Z" fill="white"/>
<path d="M66.1413 65.1881C64.6404 63.7674 62.5164 63.0166 59.9986 63.0166C55.8066 63.0166 53.417 65.43 52.2675 66.5928L54.091 69.8262L54.1003 69.8161C55.1917 68.6229 58.1753 65.9955 62.2948 67.3673L62.3134 67.3744C63.1629 67.7575 64.1745 68.5352 64.1772 70.0647L64.1775 70.0746C64.1991 70.2666 64.2105 70.4708 64.2105 70.682V71.95L59.4501 72.9049C57.1679 73.3578 55.3214 74.1371 53.9606 75.2213C52.2751 76.564 51.4204 78.3039 51.4204 80.3937C51.4204 82.6055 52.3319 84.4733 54.0568 85.796C55.5885 86.9707 57.6689 87.6179 59.9145 87.6179C62.1543 87.6179 64.2514 86.8712 65.8194 85.5157C67.462 84.0956 68.3668 82.12 68.3668 79.9524V70.6823C68.366 68.308 67.7006 66.6652 66.1413 65.1881ZM64.2105 79.952C64.2105 81.0545 63.8181 82.0665 63.1057 82.8004C62.3206 83.6093 61.2026 84.0377 59.8721 84.0377C58.9457 84.0377 57.2413 83.8559 56.2411 82.6373C55.4621 81.6884 55.3419 80.3122 55.9427 79.2109C57.0054 77.2639 59.4312 76.53 61.665 76.069L61.9116 76.0182C62.4066 75.9172 63.5655 75.6799 63.9749 75.5926L64.2105 75.5421V79.952Z" fill="white"/>
<path d="M85.0525 64.9571C84.6988 64.6422 84.3242 64.3574 83.939 64.1102C83.0399 63.5334 82.1264 63.1804 81.222 63.0618C79.4677 62.8323 77.388 63.2518 75.7954 64.1575C75.2838 64.4481 74.8141 64.795 74.399 65.1882C72.956 66.5544 72.1743 67.8351 72.1743 70.6823V87.2249H76.3294L76.3298 71.5831C76.3298 71.2086 76.3298 70.8333 76.3302 70.4592C76.3306 70.0588 76.3393 69.6974 76.4419 69.329C76.6097 68.7314 76.9813 68.1728 77.4891 67.7564C77.719 67.5678 77.9671 67.413 78.2258 67.2963C79.8422 66.6193 81.6109 67.0157 82.9956 68.3522C84.848 66.6109 85.5441 65.9577 85.8108 65.7097C85.5907 65.4631 85.1427 65.0378 85.0525 64.9571Z" fill="white"/>
<path d="M123.253 63.0164C119.061 63.0164 116.671 65.4298 115.521 66.5925L117.345 69.826L117.355 69.8158C118.446 68.6226 121.43 65.9952 125.55 67.367L125.568 67.3742C126.418 67.7574 127.429 68.5351 127.432 70.0645L127.432 70.0744C127.454 70.2663 127.465 70.4706 127.465 70.6818V71.9498L122.705 72.9047C120.422 73.3576 118.575 74.1368 117.215 75.221C115.529 76.5638 114.675 78.3039 114.675 80.3935C114.675 82.6052 115.586 84.4731 117.311 85.7957C118.843 86.9704 120.923 87.6176 123.169 87.6176C125.409 87.6176 127.506 86.871 129.074 85.5155C130.716 84.0954 131.621 82.1197 131.621 79.9522V70.6822C131.621 68.4663 130.852 66.5665 129.396 65.1881C127.894 63.7674 125.77 63.0164 123.253 63.0164ZM127.464 79.952C127.464 81.0545 127.072 82.0664 126.359 82.8004C125.575 83.6093 124.457 84.0377 123.126 84.0377C122.2 84.0377 120.495 83.8559 119.495 82.6373C118.716 81.6883 118.596 80.3122 119.197 79.2109C120.259 77.2639 122.685 76.53 124.919 76.0689L125.157 76.02C125.654 75.9184 126.817 75.6805 127.229 75.5931L127.464 75.5426V79.952Z" fill="white"/>
<path d="M107.749 74.3007C106.679 73.7247 105.564 73.3011 104.323 72.8454L104.14 72.779C103.339 72.4856 102.512 72.1829 101.746 71.7924C100.78 71.3002 100.242 70.7616 100.052 70.0977L100.046 70.077C99.8793 69.4642 100.018 68.807 100.417 68.3159C100.792 67.8545 101.374 67.4985 102.146 67.2574C102.487 67.1508 102.847 67.0744 103.214 67.0299C104.54 66.8694 105.908 67.1094 107.166 67.7234C108.009 68.1349 108.803 68.7006 109.523 69.4037C109.557 69.4367 109.852 69.7351 109.921 69.8156L109.931 69.8264L109.936 69.8158C109.949 69.7926 111.648 66.7805 111.754 66.5925C110.604 65.429 108.215 63.0164 104.023 63.0164C101.431 63.0164 99.0824 63.8511 97.5815 65.3066C96.0185 66.8222 95.4087 69.07 95.9889 71.1719C96.4309 72.7754 97.6959 74.2075 99.549 75.2057C100.709 75.83 101.982 76.3086 103.085 76.7084L103.224 76.7591C104.189 77.1092 105.187 77.4699 106.064 78.0197C107.098 78.6683 107.622 79.5072 107.622 80.5132C107.622 81.8995 106.501 82.8724 105.29 83.4052C103.94 83.9985 102.372 83.8068 100.985 83.3887C99.0983 82.8304 97.1914 80.8842 97.1725 80.8649L95.2981 84.0433C96.4495 85.2076 98.8389 87.6176 103.027 87.6176C103.367 87.6176 103.713 87.6023 104.058 87.5715L104.27 87.5526V87.558L104.278 87.5572C106.13 87.3684 107.804 86.7387 109.119 85.7366C110.833 84.4291 111.777 82.5744 111.777 80.5132C111.777 79.0334 111.366 77.6909 110.59 76.6306C109.937 75.7401 109.008 74.9778 107.749 74.3007Z" fill="white"/>
<path d="M92.2518 63.4177H88.0959V87.2242H92.2518V63.4177Z" fill="white"/>
</g>
</g>
<defs>
<clipPath id="clip0_6_77">
<rect width="150" height="150" fill="white"/>
</clipPath>
<clipPath id="clip1_6_77">
<rect width="114" height="24.9967" fill="white" transform="translate(18 63)"/>
</clipPath>
</defs>
</svg>
