<svg width="150" height="150" viewBox="0 0 150 150" fill="none" xmlns="http://www.w3.org/2000/svg">
<g clip-path="url(#clip0_6_40)">
<path d="M150 0H0V150H150V0Z" fill="black"/>
<path d="M33.0295 81.125C33.0295 82.0625 32.8185 82.8955 32.3952 83.625C31.9719 84.458 31.3376 85.083 30.5984 85.708C29.7937 86.3758 28.8576 86.8725 27.8489 87.167C26.7925 87.4795 25.6288 87.6875 24.3601 87.6875C23.1976 87.6875 22.14 87.583 21.2947 87.4795C20.3432 87.375 19.4978 87.167 18.6513 86.958C17.8059 86.75 17.0655 86.333 16.3262 86.0205C15.5858 85.6045 14.8454 85.083 14 84.5625L17.6998 81.333C18.7574 82.167 19.815 82.6875 20.8714 83C21.929 83.3125 22.9865 83.5205 24.1491 83.5205C24.6773 83.5205 25.1006 83.417 25.5238 83.3125C25.9377 83.203 26.3304 83.0271 26.6863 82.792C27.0035 82.583 27.2146 82.2705 27.4268 82.0625C27.6378 81.75 27.7439 81.4375 27.7439 81.125C27.7439 80.708 27.6378 80.3955 27.5317 80.083C27.4268 79.7705 27.1096 79.458 26.6863 79.25C26.2631 78.9375 25.7349 78.7295 24.9945 78.417C24.1024 78.0399 23.1839 77.7266 22.2461 77.4795C21.2947 77.167 20.3432 76.8545 19.3917 76.4375C18.4402 76.0205 17.6998 75.5 17.0655 74.9795C16.4312 74.458 15.7968 73.7295 15.4797 73C14.9515 72.0625 14.7404 71.125 14.7404 70.083C14.7404 69.042 14.9515 68.1045 15.3747 67.2705C15.7968 66.4375 16.4312 65.708 17.2777 65.083C18.017 64.5625 18.9684 64.042 20.026 63.7295C21.0836 63.417 22.2461 63.208 23.4087 63.208C25.4177 63.208 27.2146 63.417 28.5893 63.9375C29.964 64.458 31.2327 65.083 32.2891 66.0205L28.6954 69.25C28.0611 68.7295 27.3207 68.208 26.4753 67.8955C25.6288 67.583 24.6773 67.4795 23.6209 67.4795C23.0915 67.4795 22.6694 67.583 22.2461 67.6875C21.7179 67.792 21.4008 68 21.0836 68.208C20.7664 68.417 20.5542 68.7295 20.3432 69.042C20.1321 69.3545 20.026 69.667 20.026 69.9795C20.026 70.3955 20.1321 70.708 20.3432 71.0205C20.4493 71.333 20.7664 71.542 21.1885 71.8545C21.6118 72.167 22.14 72.375 22.8804 72.6875C23.6209 73 24.4662 73.3125 25.5238 73.625C26.8974 74.042 27.955 74.458 28.9065 74.9795C29.8579 75.5 30.5984 76.0205 31.2327 76.6455C31.867 77.2705 32.2891 77.8955 32.6063 78.625C32.9234 79.3545 33.0295 80.1875 33.0295 81.125ZM62.7363 87.375H57.5568V76.958H47.936V87.375H42.7553V63.7295H47.936V73.1045H57.5568V63.7295H62.7363V87.375ZM91.3867 87.375H72.4633V63.7295H91.3867V67.4795H77.5378V73.1045H90.3291V76.75H77.5378V83.208H91.3867V87.375ZM106.716 87.375H101.536V63.7295H106.716V87.375ZM136 63.7295V88L121.517 75.6045V87.167H116.442V63L130.925 75.3955V63.7295H136Z" fill="#F5F5F5"/>
</g>
<defs>
<clipPath id="clip0_6_40">
<rect width="150" height="150" fill="white"/>
</clipPath>
</defs>
</svg>
