<svg width="150" height="150" viewBox="0 0 150 150" fill="none" xmlns="http://www.w3.org/2000/svg">
<g clip-path="url(#clip0_6_45)">
<path d="M150 0H0V150H150V0Z" fill="#F09C75"/>
<path d="M70.9729 64.9081C71.3896 64.5335 72.0129 64.2752 72.833 64.1299V63.5164H65.7456V64.1299C65.879 64.1525 65.9756 64.1686 66.039 64.1751C66.8157 64.301 67.3791 64.5077 67.7092 64.8112C68.0392 65.1051 68.1992 65.4183 68.1992 65.738C68.1992 66.2546 67.9325 67.1555 67.4024 68.4569L61.9319 81.6864L56.0412 68.289C55.5178 67.0942 55.2578 66.2223 55.2578 65.6572C55.2578 65.2504 55.4145 64.921 55.7312 64.6627C56.0478 64.4076 56.748 64.2235 57.8114 64.1267V63.5164H48.9138H48.337H39.4993H39.0193H32.4086V64.1299C32.5453 64.1525 32.6386 64.1686 32.6919 64.1751C33.4787 64.301 34.0388 64.5077 34.3655 64.8112C34.6955 65.1051 34.8655 65.4183 34.8655 65.738C34.8655 66.2546 34.5988 67.1555 34.0621 68.4569L28.5948 81.6864L22.7075 68.289C22.1841 67.0942 21.9141 66.2223 21.9141 65.6572C21.9141 65.2504 22.0741 64.921 22.3975 64.6627C22.7142 64.4076 23.4076 64.2235 24.4744 64.1267V63.5164H15V64.1299C15.6967 64.1815 16.2601 64.3107 16.6702 64.5077C17.0836 64.7079 17.4369 64.9824 17.7236 65.3376C17.9103 65.5701 18.217 66.19 18.6604 67.2169L27.3147 86.9015H27.9948L36.0357 67.4591C36.499 66.3063 37.0357 65.4635 37.6358 64.9081C38.0625 64.5335 38.6793 64.2752 39.5027 64.1299H39.8494C40.3994 64.1299 40.9195 64.259 41.4196 64.5271C41.7696 64.724 42.003 64.9727 42.1196 65.2536C42.2664 65.6217 42.3364 66.387 42.3364 67.5398V82.3581C42.3364 83.7305 42.203 84.5959 41.9263 84.9575C41.4896 85.5032 40.7995 85.7778 39.8461 85.7778H39.0193V86.388H48.9138V85.7778H48.0803C47.537 85.7778 47.0202 85.6453 46.5335 85.3708C46.1701 85.1739 45.9301 84.9284 45.8234 84.6475C45.6734 84.2826 45.6001 83.5174 45.6001 82.3581V67.5398C45.6001 66.1739 45.7367 65.3085 46.0235 64.9565C46.4535 64.4011 47.1369 64.1299 48.0803 64.1299H48.337C49.0438 64.1815 49.6005 64.3107 50.0139 64.5077C50.4339 64.7079 50.7739 64.9824 51.0673 65.3376C51.244 65.5701 51.5607 66.19 51.9974 67.2169L60.6617 86.9015H61.3384L69.3693 67.4591C69.8361 66.3063 70.3728 65.4635 70.9729 64.9081Z" fill="white"/>
<path d="M132.803 85.0063C132.269 84.5509 131.683 83.5564 131.03 82.0161L123.028 63H122.385L114.154 81.7868C113.447 83.4563 112.807 84.5671 112.228 85.1128C112.027 85.3033 111.661 85.4616 111.137 85.6069C110.351 85.4358 109.687 85.1774 109.13 84.8287C108.347 84.3249 107.41 83.3207 106.317 81.803L101.52 75.2383C103.463 74.8055 104.91 74.0822 105.833 73.0457C106.76 72.0092 107.23 70.7983 107.23 69.3936C107.23 68.0826 106.82 66.9492 106.006 66.0031C105.196 65.0472 104.207 64.3982 103.039 64.043C101.883 63.6943 100.066 63.5167 97.6156 63.5167H89.1949V64.1302H90.0647C90.9351 64.1302 91.5884 64.3788 92.0319 64.8664C92.3552 65.2152 92.5119 66.1064 92.5119 67.5401V82.3584C92.5119 83.663 92.3884 84.4961 92.158 84.8351C91.7351 85.4648 91.038 85.778 90.0647 85.778H90.0149C89.0681 85.7231 88.3278 85.4648 87.8046 85.0095C87.2708 84.5542 86.6879 83.5596 86.0379 82.0193L78.0267 63H77.39L69.1591 81.7868C68.4557 83.4563 67.8123 84.5671 67.2289 85.1128C66.9489 85.3873 66.3188 85.6069 65.3521 85.7748V86.3916H72.6562V85.7748C71.5427 85.694 70.816 85.5229 70.4792 85.2582C70.1459 84.9966 69.9725 84.6898 69.9725 84.3378C69.9725 83.8987 70.1692 83.2335 70.5592 82.3423L72.0795 78.8581V78.8548L72.1261 78.7676L72.6761 77.4986L72.7262 77.3953L76.7333 68.2666L80.6037 77.4986L81.2504 79.0421L82.4938 82.0355C82.9539 83.1043 83.181 83.8857 83.181 84.3766C83.181 84.7512 83.0209 85.0579 82.6936 85.3195C82.3703 85.581 81.7435 85.7361 80.8237 85.778V86.3948H89.1883H90.0082H99.0789V85.778H98.1826C97.3222 85.778 96.6788 85.5294 96.2452 85.0353C95.9286 84.6963 95.7652 83.8051 95.7652 82.3584V75.9261V75.6742V74.6021V74.4762V65.1506C96.8786 64.9019 97.759 64.7825 98.4157 64.7825C99.8757 64.7825 101.063 65.2248 101.956 66.1258C102.846 67.017 103.296 68.173 103.296 69.6003C103.296 71.0566 102.736 72.2578 101.639 73.2007C100.662 74.0306 99.2794 74.4988 97.4788 74.5924L98.1687 75.7291L105.996 86.3916H110.351H112.2H117.651V85.7748C116.538 85.694 115.807 85.5229 115.474 85.2582C115.141 84.9966 114.968 84.6898 114.968 84.3378C114.968 83.8987 115.164 83.2335 115.551 82.3423L117.048 78.9324L117.668 77.4954L121.728 68.2634L125.465 77.1757L125.506 77.2726L125.599 77.4922L126.189 78.9L127.495 82.029C127.952 83.0978 128.176 83.8793 128.176 84.3701C128.176 84.7447 128.019 85.0515 127.692 85.313C127.369 85.5746 126.752 85.7296 125.826 85.7716V86.3883H135V85.7716C134.063 85.7199 133.326 85.4648 132.803 85.0063Z" fill="white"/>
</g>
<defs>
<clipPath id="clip0_6_45">
<rect width="150" height="150" fill="white"/>
</clipPath>
</defs>
</svg>
