<svg width="24" height="24" viewBox="0 0 24 24" fill="none" xmlns="http://www.w3.org/2000/svg">
<g clip-path="url(#clip0_3_4638)">
<path d="M11.6241 7.22198C10.7481 7.22198 9.39206 6.22598 7.96406 6.26198C6.08006 6.28598 4.35206 7.35397 3.38006 9.04597C1.42406 12.442 2.87606 17.458 4.78406 20.218C5.72006 21.562 6.82406 23.074 8.28806 23.026C9.69206 22.966 10.2201 22.114 11.9241 22.114C13.6161 22.114 14.0961 23.026 15.5841 22.99C17.0961 22.966 18.0561 21.622 18.9801 20.266C20.0481 18.706 20.4921 17.194 20.5161 17.11C20.4801 17.098 17.5761 15.982 17.5401 12.622C17.5161 9.81397 19.8321 8.46998 19.9401 8.40998C18.6201 6.47798 16.5921 6.26198 15.8841 6.21398C14.0361 6.06998 12.4881 7.22198 11.6241 7.22198ZM14.7441 4.38998C15.5241 3.45398 16.0401 2.14598 15.8961 0.849976C14.7801 0.897976 13.4361 1.59398 12.6321 2.52998C11.9121 3.35798 11.2881 4.68998 11.4561 5.96198C12.6921 6.05798 13.9641 5.32598 14.7441 4.38998Z" fill="white"/>
</g>
<defs>
<clipPath id="clip0_3_4638">
<rect width="24" height="24" fill="white"/>
</clipPath>
</defs>
</svg>
