<svg width="512" height="512" viewBox="0 0 512 512" fill="none" xmlns="http://www.w3.org/2000/svg">
<g clip-path="url(#clip0_8_8)">
<path d="M241.5 27.6C240.7 22.2 236.6 17.8 231.2 17C209.1 13.9 186.6 17.9 166.8 28.4L92.8 67.9C73.1 78.4 57.2 94.9 47.4 115L10.7 190.6C0.900002 210.7 -2.3 233.5 1.6 255.5L16.1 338.3C20 360.4 30.7 380.6 46.8 396.2L107.1 454.6C123.2 470.2 143.7 480.2 165.8 483.3L248.8 495C270.9 498.1 293.4 494.1 313.2 483.6L387.2 444.1C406.9 433.6 422.8 417.1 432.6 396.9L469.3 321.4C479.1 301.3 482.3 278.5 478.4 256.5C477.5 251.2 473.1 247.2 467.8 246.4C416.3 238.2 375 199.3 363.3 149C361.5 141.4 355.3 135.6 347.6 134.4C293 125.7 249.9 82.4 241.4 27.6H241.5ZM192 144C200.487 144 208.626 147.371 214.627 153.373C220.629 159.374 224 167.513 224 176C224 184.487 220.629 192.626 214.627 198.627C208.626 204.629 200.487 208 192 208C183.513 208 175.374 204.629 169.373 198.627C163.371 192.626 160 184.487 160 176C160 167.513 163.371 159.374 169.373 153.373C175.374 147.371 183.513 144 192 144ZM128 336C128 327.513 131.371 319.374 137.373 313.373C143.374 307.371 151.513 304 160 304C168.487 304 176.626 307.371 182.627 313.373C188.629 319.374 192 327.513 192 336C192 344.487 188.629 352.626 182.627 358.627C176.626 364.629 168.487 368 160 368C151.513 368 143.374 364.629 137.373 358.627C131.371 352.626 128 344.487 128 336ZM352 272C360.487 272 368.626 275.371 374.627 281.373C380.629 287.374 384 295.513 384 304C384 312.487 380.629 320.626 374.627 326.627C368.626 332.629 360.487 336 352 336C343.513 336 335.374 332.629 329.373 326.627C323.371 320.626 320 312.487 320 304C320 295.513 323.371 287.374 329.373 281.373C335.374 275.371 343.513 272 352 272Z" fill="#535C68"/>
</g>
<defs>
<clipPath id="clip0_8_8">
<rect width="512" height="512" fill="white"/>
</clipPath>
</defs>
</svg>
